<svg width="174" height="78" viewBox="0 0 174 78" fill="none" xmlns="http://www.w3.org/2000/svg">
<path d="M29.5688 55.3665C29.3162 55.0405 29.0276 54.806 28.7053 54.6619C28.383 54.5178 28.0432 54.4463 27.685 54.4463C27.318 54.4463 26.9685 54.5125 26.6353 54.6472C26.3021 54.7818 26.0048 55.009 25.7424 55.3297C25.48 55.6505 25.2731 56.0649 25.125 56.5739C24.9758 57.0819 24.8964 57.7045 24.8866 58.4428C24.8964 59.1622 24.9737 59.7754 25.1174 60.2834C25.2611 60.7913 25.4593 61.2057 25.713 61.5275C25.9667 61.8494 26.2542 62.0829 26.5765 62.2322C26.8988 62.3815 27.2386 62.4552 27.5968 62.4552C27.9638 62.4552 28.3133 62.3858 28.6465 62.2469C28.9797 62.1081 29.2769 61.8799 29.5394 61.5644C29.8018 61.2488 30.0087 60.8334 30.1568 60.3202C30.3049 59.8069 30.3854 59.1822 30.3952 58.4439C30.3854 57.7245 30.3081 57.1135 30.1644 56.6107C30.0207 56.108 29.8225 55.6926 29.5688 55.3665Z" fill="#EF8502"/>
<path d="M49 48.0172V21.701C49 20.8954 48.8998 20.299 48.4011 19.8163L35.7297 7.57845C35.3497 7.2114 34.8227 7 34.2837 7H2.68193C1.39051 7 0 7.96338 0 10.0773V48.0172H49ZM25.0444 41.7069C25.0444 42.2874 24.5577 42.7586 23.9556 42.7586C23.3534 42.7586 22.8667 42.2874 22.8667 41.7069V38.5517C22.8667 37.9712 23.3534 37.5 23.9556 37.5C24.5577 37.5 25.0444 37.9712 25.0444 38.5517V41.7069ZM33.7556 10.5664C33.7556 10.0847 34.3577 9.84386 34.7105 10.1846L45.7028 20.8018C46.0556 21.1425 45.8063 21.7241 45.3076 21.7241H33.7556V10.5664ZM32.6667 32.2414V28.0345C32.6667 27.455 32.1788 26.9828 31.5778 26.9828C30.9756 26.9828 30.4889 26.5116 30.4889 25.931C30.4889 25.3505 30.9756 24.8793 31.5778 24.8793C33.3788 24.8793 34.8444 26.2949 34.8444 28.0345V32.2414C34.8444 33.4014 35.8212 34.3448 37.0222 34.3448C37.6244 34.3448 38.1111 34.816 38.1111 35.3965C38.1111 35.9771 37.6244 36.4483 37.0222 36.4483C35.8212 36.4483 34.8444 37.3917 34.8444 38.5517V42.7586C34.8444 44.4982 33.3788 45.9138 31.5778 45.9138C30.9756 45.9138 30.4889 45.4426 30.4889 44.8621C30.4889 44.2815 30.9756 43.8103 31.5778 43.8103C32.1788 43.8103 32.6667 43.3381 32.6667 42.7586V38.5517C32.6667 37.2896 33.2568 36.1685 34.1715 35.3965C33.2568 34.6246 32.6667 33.5034 32.6667 32.2414ZM23.9556 30.1379C24.8572 30.1379 25.5889 30.8447 25.5889 31.7155C25.5889 32.5863 24.8572 33.2931 23.9556 33.2931C23.054 33.2931 22.3222 32.5863 22.3222 31.7155C22.3222 30.8447 23.054 30.1379 23.9556 30.1379ZM10.8889 34.3448C12.0899 34.3448 13.0667 33.4014 13.0667 32.2414V28.0345C13.0667 26.2949 14.5323 24.8793 16.3333 24.8793C16.9355 24.8793 17.4222 25.3505 17.4222 25.931C17.4222 26.5116 16.9355 26.9828 16.3333 26.9828C15.7323 26.9828 15.2444 27.455 15.2444 28.0345V32.2414C15.2444 33.5034 14.6543 34.6246 13.7396 35.3965C14.6543 36.1685 15.2444 37.2896 15.2444 38.5517V42.7586C15.2444 43.3381 15.7323 43.8103 16.3333 43.8103C16.9355 43.8103 17.4222 44.2815 17.4222 44.8621C17.4222 45.4426 16.9355 45.9138 16.3333 45.9138C14.5323 45.9138 13.0667 44.4982 13.0667 42.7586V38.5517C13.0667 37.3917 12.0899 36.4483 10.8889 36.4483C10.2867 36.4483 9.8 35.9771 9.8 35.3965C9.8 34.816 10.2867 34.3448 10.8889 34.3448Z" fill="#EF8502"/>
<path d="M0 50.1211V65.8969C0 66.9581 1.32844 68.0004 2.68193 68.0004H46.3181C47.6716 68.0004 49 66.9581 49 65.8969V50.1211H0ZM12.5451 61.2336C12.5451 61.7321 12.4504 62.1518 12.262 62.4915C12.0736 62.8312 11.821 63.1046 11.503 63.3108C11.1851 63.5169 10.8203 63.661 10.4087 63.742C9.99709 63.823 9.57242 63.864 9.13578 63.864C8.918 63.864 8.66102 63.8419 8.3692 63.7988C8.07738 63.7556 7.77358 63.6894 7.46107 63.5979C7.14856 63.5064 6.84802 63.4033 6.56056 63.2887C6.27309 63.174 6.03027 63.0447 5.831 62.9006L6.58996 61.7363C6.68904 61.8026 6.8306 61.8731 7.01462 61.9446C7.19864 62.0161 7.40009 62.0834 7.61787 62.1454C7.83564 62.2075 8.06431 62.2622 8.30278 62.3106C8.54124 62.359 8.76447 62.3821 8.97244 62.3821C9.49838 62.3821 9.9176 62.2832 10.2301 62.0876C10.5426 61.892 10.7081 61.5575 10.7288 61.0885V52.9786H12.5451V61.2336ZM21.1876 62.0035C21.0243 62.3632 20.7934 62.6797 20.4951 62.9521C20.1967 63.2245 19.8308 63.4433 19.3931 63.6063C18.9554 63.7693 18.461 63.8503 17.9046 63.8503C17.6661 63.8503 17.4211 63.8377 17.1674 63.8145C16.9137 63.7914 16.6589 63.7493 16.4008 63.6925C16.1428 63.6347 15.8967 63.5558 15.6637 63.4548C15.4306 63.3539 15.2303 63.2319 15.0604 63.0878L15.3729 61.851C15.5123 61.9277 15.6876 62.0024 15.901 62.0739C16.1145 62.1455 16.3344 62.2128 16.5631 62.2748C16.7918 62.3369 17.0193 62.3873 17.248 62.4263C17.4767 62.4652 17.689 62.4841 17.8883 62.4841C18.4937 62.4841 18.9576 62.3474 19.2799 62.0739C19.6022 61.8005 19.7633 61.3956 19.7633 60.8592C19.7633 60.5332 19.6501 60.2555 19.4214 60.0252C19.1928 59.7948 18.9075 59.5866 18.5656 59.3994C18.2236 59.2122 17.8534 59.026 17.456 58.8388C17.0585 58.6516 16.6872 58.4308 16.3399 58.1773C15.9925 57.9238 15.705 57.6241 15.4764 57.2791C15.2477 56.9342 15.1345 56.503 15.1345 55.9855C15.1345 55.5164 15.2238 55.0989 15.4023 54.735C15.5809 54.3711 15.8216 54.0609 16.1243 53.8074C16.427 53.5539 16.7798 53.3594 17.1816 53.2247C17.5834 53.0901 18.008 53.0238 18.4545 53.0238C18.9107 53.0238 19.3724 53.0649 19.8385 53.1459C20.3045 53.2268 20.6813 53.3593 20.9698 53.5413C20.9099 53.6654 20.8413 53.8021 20.7618 53.9515C20.6824 54.1008 20.6072 54.2386 20.5386 54.368C20.47 54.4973 20.4101 54.6056 20.36 54.6919C20.31 54.7781 20.2806 54.8265 20.2708 54.836C20.2109 54.8076 20.1444 54.7697 20.0693 54.7213C19.9942 54.673 19.8886 54.6256 19.7492 54.5772C19.6098 54.5289 19.4269 54.4963 19.1982 54.4763C18.9695 54.4563 18.6766 54.4616 18.3195 54.491C18.1202 54.511 17.9329 54.5646 17.7532 54.6561C17.5736 54.7476 17.4157 54.8591 17.2763 54.9937C17.1369 55.1283 17.028 55.2787 16.9486 55.447C16.8691 55.6153 16.8299 55.7762 16.8299 55.9287C16.8299 56.3115 16.9431 56.6207 17.1718 56.8563C17.4004 57.0919 17.6836 57.297 18.02 57.4747C18.3565 57.6525 18.7245 57.825 19.122 57.9922C19.5194 58.1594 19.8886 58.3645 20.2316 58.6032C20.5746 58.842 20.8588 59.1428 21.0874 59.5014C21.3161 59.8601 21.4293 60.3228 21.4293 60.8886C21.4337 61.2725 21.3509 61.6438 21.1876 62.0035ZM31.862 60.8024C31.629 61.4829 31.3056 62.0487 30.894 62.4988C30.4824 62.949 30.0011 63.2897 29.4501 63.5201C28.8991 63.7504 28.2959 63.865 27.6414 63.865C26.987 63.865 26.3838 63.7504 25.8328 63.5201C25.2818 63.2897 24.8005 62.95 24.3889 62.4988C23.9773 62.0476 23.6539 61.4829 23.4209 60.8024C23.1879 60.1219 23.0714 59.3352 23.0714 58.4444C23.0714 57.5536 23.1879 56.769 23.4209 56.0938C23.6539 55.4186 23.9773 54.8549 24.3889 54.4048C24.8005 53.9546 25.2818 53.6118 25.8328 53.3762C26.3838 53.1406 26.987 53.0238 27.6414 53.0238C28.2959 53.0238 28.8991 53.1406 29.4501 53.3762C30.0011 53.6118 30.4824 53.9536 30.894 54.4048C31.3056 54.856 31.629 55.4186 31.862 56.0938C32.095 56.769 32.2115 57.5536 32.2115 58.4444C32.2115 59.3352 32.095 60.1219 31.862 60.8024ZM42.6627 63.7935H40.8464L36.5442 56.4893V63.7935H34.7279V53.1963H36.5442L40.8464 60.5006V53.1963H42.6627V63.7935Z" fill="#EF8502"/>
<path d="M62.552 32.396C60.728 32.396 59.264 31.748 58.16 30.452C57.08 29.156 56.516 27.428 56.468 25.268C56.468 24.932 56.624 24.764 56.936 24.764H59.24C59.552 24.764 59.708 24.92 59.708 25.232C59.756 26.504 60.032 27.512 60.536 28.256C61.04 28.976 61.736 29.336 62.624 29.336C63.512 29.336 64.196 29.024 64.676 28.4C65.18 27.752 65.432 26.864 65.432 25.736V7.268C65.432 6.956 65.6 6.8 65.936 6.8H68.204C68.54 6.8 68.708 6.956 68.708 7.268V25.52C68.708 27.632 68.168 29.312 67.088 30.56C66.032 31.784 64.52 32.396 62.552 32.396ZM82.4698 30.776C81.3418 31.856 79.8418 32.396 77.9698 32.396C76.0978 32.396 74.5978 31.76 73.4698 30.488C72.3418 29.192 71.7418 27.452 71.6698 25.268C71.6698 24.932 71.8378 24.764 72.1738 24.764H74.4418C74.7298 24.764 74.8978 24.92 74.9458 25.232C75.0178 27.968 76.0378 29.336 78.0058 29.336C79.9498 29.336 80.9218 28.34 80.9218 26.348C80.9218 25.34 80.6098 24.368 79.9858 23.432C79.3618 22.496 78.6058 21.656 77.7178 20.912C76.8538 20.144 75.9778 19.364 75.0898 18.572C74.2018 17.78 73.4458 16.832 72.8218 15.728C72.1978 14.624 71.8858 13.436 71.8858 12.164C71.8858 10.412 72.4258 9.02 73.5058 7.988C74.5858 6.932 76.0258 6.404 77.8258 6.404C79.5778 6.404 80.9938 7.028 82.0738 8.276C83.1778 9.524 83.7658 11.204 83.8378 13.316C83.8378 13.628 83.6818 13.784 83.3698 13.784H81.1018C80.7898 13.784 80.6338 13.628 80.6338 13.316C80.5378 10.724 79.6138 9.428 77.8618 9.428C76.0378 9.428 75.1258 10.34 75.1258 12.164C75.1258 13.1 75.4378 14.012 76.0618 14.9C76.6858 15.764 77.4418 16.568 78.3298 17.312C79.2178 18.056 80.1058 18.836 80.9938 19.652C81.8818 20.444 82.6378 21.428 83.2618 22.604C83.8858 23.756 84.1978 25.004 84.1978 26.348C84.1978 28.196 83.6218 29.672 82.4698 30.776ZM97.7772 30.524C96.6012 31.748 95.0772 32.36 93.2052 32.36C91.3332 32.36 89.7972 31.736 88.5972 30.488C87.4212 29.24 86.8332 27.608 86.8332 25.592V13.208C86.8332 11.192 87.4212 9.56 88.5972 8.312C89.7972 7.064 91.3332 6.44 93.2052 6.44C95.0772 6.44 96.6012 7.052 97.7772 8.276C98.9532 9.5 99.5412 11.06 99.5412 12.956V25.844C99.5412 27.74 98.9532 29.3 97.7772 30.524ZM93.2052 29.336C94.1172 29.336 94.8492 29.024 95.4012 28.4C95.9772 27.776 96.2652 26.972 96.2652 25.988V12.812C96.2652 11.828 95.9772 11.024 95.4012 10.4C94.8492 9.776 94.1172 9.464 93.2052 9.464C92.2692 9.464 91.5132 9.788 90.9372 10.436C90.3852 11.084 90.1092 11.96 90.1092 13.064V25.736C90.1092 26.84 90.3852 27.716 90.9372 28.364C91.5132 29.012 92.2692 29.336 93.2052 29.336ZM103.517 32C103.205 32 103.049 31.832 103.049 31.496V13.028C103.049 11.06 103.613 9.464 104.741 8.24C105.869 7.016 107.357 6.404 109.205 6.404C111.053 6.404 112.541 7.016 113.669 8.24C114.821 9.464 115.397 11.06 115.397 13.028V31.496C115.397 31.832 115.229 32 114.893 32H112.625C112.289 32 112.121 31.832 112.121 31.496V12.884C112.121 11.852 111.857 11.024 111.329 10.4C110.801 9.776 110.093 9.464 109.205 9.464C108.317 9.464 107.609 9.776 107.081 10.4C106.553 11.024 106.289 11.852 106.289 12.884V31.496C106.289 31.832 106.133 32 105.821 32H103.517ZM63.704 68.396C61.856 68.396 60.368 67.808 59.24 66.632C58.112 65.432 57.548 63.86 57.548 61.916V48.884C57.548 46.94 58.112 45.38 59.24 44.204C60.368 43.004 61.856 42.404 63.704 42.404C65.48 42.404 66.92 43.04 68.024 44.312C69.128 45.56 69.704 47.228 69.752 49.316C69.752 49.628 69.596 49.784 69.284 49.784H66.98C66.668 49.784 66.512 49.628 66.512 49.316C66.488 48.068 66.212 47.12 65.684 46.472C65.18 45.8 64.508 45.464 63.668 45.464C62.78 45.464 62.084 45.752 61.58 46.328C61.076 46.904 60.824 47.696 60.824 48.704V62.096C60.824 63.104 61.076 63.896 61.58 64.472C62.084 65.048 62.78 65.336 63.668 65.336C64.58 65.336 65.3 64.988 65.828 64.292C66.38 63.572 66.668 62.552 66.692 61.232C66.692 60.92 66.848 60.764 67.16 60.764H69.464C69.776 60.764 69.932 60.932 69.932 61.268C69.86 63.452 69.26 65.192 68.132 66.488C67.004 67.76 65.528 68.396 63.704 68.396ZM81.6134 66.776C80.5574 67.856 79.1654 68.396 77.4374 68.396C75.7094 68.396 74.3174 67.856 73.2614 66.776C72.2054 65.672 71.6774 64.256 71.6774 62.528V55.472C71.6774 53.744 72.2054 52.34 73.2614 51.26C74.3174 50.156 75.7094 49.604 77.4374 49.604C79.1654 49.604 80.5574 50.156 81.6134 51.26C82.6694 52.34 83.1974 53.744 83.1974 55.472V62.528C83.1974 64.256 82.6694 65.672 81.6134 66.776ZM75.4934 64.724C75.9734 65.228 76.6214 65.48 77.4374 65.48C78.2534 65.48 78.9014 65.228 79.3814 64.724C79.8614 64.196 80.1014 63.5 80.1014 62.636V55.364C80.1014 54.5 79.8614 53.816 79.3814 53.312C78.9014 52.784 78.2534 52.52 77.4374 52.52C76.6214 52.52 75.9734 52.784 75.4934 53.312C75.0374 53.816 74.8094 54.5 74.8094 55.364V62.636C74.8094 63.5 75.0374 64.196 75.4934 64.724ZM86.8483 68C86.5123 68 86.3443 67.832 86.3443 67.496V55.472C86.3443 53.744 86.8603 52.34 87.8923 51.26C88.9483 50.156 90.3043 49.604 91.9603 49.604C93.6163 49.604 94.9603 50.156 95.9923 51.26C97.0483 52.34 97.5763 53.744 97.5763 55.472V67.496C97.5763 67.832 97.4083 68 97.0723 68H94.9843C94.6483 68 94.4803 67.832 94.4803 67.496V55.364C94.4803 54.5 94.2523 53.816 93.7963 53.312C93.3643 52.784 92.7523 52.52 91.9603 52.52C91.1683 52.52 90.5443 52.784 90.0883 53.312C89.6563 53.816 89.4403 54.5 89.4403 55.364V67.496C89.4403 67.832 89.2723 68 88.9363 68H86.8483ZM109.251 50.432C109.275 50.144 109.455 50 109.791 50H111.987C112.347 50 112.491 50.18 112.419 50.54L108.351 66.848C108.159 67.712 107.619 68.144 106.731 68.144H105.255C104.343 68.144 103.803 67.712 103.635 66.848L99.567 50.54C99.495 50.18 99.627 50 99.963 50H102.195C102.507 50 102.687 50.144 102.735 50.432L105.975 65.228L109.251 50.432ZM119.694 68.36C117.99 68.36 116.61 67.82 115.554 66.74C114.522 65.66 114.006 64.244 114.006 62.492V55.436C114.03 53.708 114.558 52.316 115.59 51.26C116.646 50.18 118.026 49.64 119.73 49.64C121.41 49.616 122.79 50.144 123.87 51.224C124.95 52.304 125.49 53.672 125.49 55.328C125.49 56.912 124.962 58.22 123.906 59.252C122.85 60.26 121.47 60.764 119.766 60.764H117.102V62.636C117.102 63.476 117.33 64.16 117.786 64.688C118.266 65.192 118.914 65.444 119.73 65.444C120.45 65.444 121.038 65.204 121.494 64.724C121.974 64.22 122.238 63.572 122.286 62.78C122.31 62.468 122.478 62.312 122.79 62.312H124.914C125.226 62.312 125.382 62.468 125.382 62.78C125.286 64.46 124.71 65.816 123.654 66.848C122.622 67.856 121.302 68.36 119.694 68.36ZM117.102 57.956H119.766C120.582 57.956 121.218 57.728 121.674 57.272C122.154 56.792 122.394 56.168 122.394 55.4C122.394 54.536 122.154 53.852 121.674 53.348C121.194 52.82 120.546 52.556 119.73 52.556C118.89 52.556 118.242 52.808 117.786 53.312C117.33 53.816 117.102 54.512 117.102 55.4V57.956ZM128.719 68C128.383 68 128.215 67.832 128.215 67.496V56.228C128.215 54.308 128.779 52.784 129.907 51.656C131.035 50.504 132.523 49.928 134.371 49.928H135.703C136.015 49.928 136.171 50.096 136.171 50.432V52.376C136.171 52.688 136.015 52.844 135.703 52.844H134.407C133.471 52.844 132.715 53.132 132.139 53.708C131.587 54.26 131.311 55.016 131.311 55.976V67.496C131.311 67.832 131.143 68 130.807 68H128.719ZM145.864 65.192C146.2 65.192 146.368 65.348 146.368 65.66V67.64C146.368 67.952 146.2 68.108 145.864 68.108H145.324C143.548 68.108 142.156 67.544 141.148 66.416C140.14 65.288 139.636 63.728 139.636 61.736V52.808H137.62C137.308 52.808 137.152 52.652 137.152 52.34V50.468C137.152 50.156 137.308 50 137.62 50H139.636V45.356C139.636 45.02 139.804 44.852 140.14 44.852H142.228C142.54 44.852 142.696 45.02 142.696 45.356V50H145.468C145.78 50 145.936 50.156 145.936 50.468V52.34C145.936 52.652 145.78 52.808 145.468 52.808H142.696V61.772C142.696 64.052 143.62 65.192 145.468 65.192H145.864ZM153.971 68.36C152.267 68.36 150.887 67.82 149.831 66.74C148.799 65.66 148.283 64.244 148.283 62.492V55.436C148.307 53.708 148.835 52.316 149.867 51.26C150.923 50.18 152.303 49.64 154.007 49.64C155.687 49.616 157.067 50.144 158.147 51.224C159.227 52.304 159.767 53.672 159.767 55.328C159.767 56.912 159.239 58.22 158.183 59.252C157.127 60.26 155.747 60.764 154.043 60.764H151.379V62.636C151.379 63.476 151.607 64.16 152.063 64.688C152.543 65.192 153.191 65.444 154.007 65.444C154.727 65.444 155.315 65.204 155.771 64.724C156.251 64.22 156.515 63.572 156.563 62.78C156.587 62.468 156.755 62.312 157.067 62.312H159.191C159.503 62.312 159.659 62.468 159.659 62.78C159.563 64.46 158.987 65.816 157.931 66.848C156.899 67.856 155.579 68.36 153.971 68.36ZM151.379 57.956H154.043C154.859 57.956 155.495 57.728 155.951 57.272C156.431 56.792 156.671 56.168 156.671 55.4C156.671 54.536 156.431 53.852 155.951 53.348C155.471 52.82 154.823 52.556 154.007 52.556C153.167 52.556 152.519 52.808 152.063 53.312C151.607 53.816 151.379 54.512 151.379 55.4V57.956ZM162.997 68C162.661 68 162.493 67.832 162.493 67.496V56.228C162.493 54.308 163.057 52.784 164.185 51.656C165.313 50.504 166.801 49.928 168.649 49.928H169.981C170.293 49.928 170.449 50.096 170.449 50.432V52.376C170.449 52.688 170.293 52.844 169.981 52.844H168.685C167.749 52.844 166.993 53.132 166.417 53.708C165.865 54.26 165.589 55.016 165.589 55.976V67.496C165.589 67.832 165.421 68 165.085 68H162.997Z" fill="white"/>
</svg>
